<mxfile host="app.diagrams.net" modified="2022-07-26T06:07:45.814Z" agent="5.0 (Macintosh; Intel Mac OS X 10_15_7) AppleWebKit/605.1.15 (KHTML, like Gecko) Version/15.5 Safari/605.1.15" etag="XLiOXkkKEGAZfcBBeTOl" version="20.1.3" type="github">
  <diagram id="lrj20CbVXe_qf1_hOw2t" name="第 1 页">
    <mxGraphModel dx="1426" dy="825" grid="1" gridSize="10" guides="1" tooltips="1" connect="1" arrows="1" fold="1" page="1" pageScale="1" pageWidth="827" pageHeight="1169" math="0" shadow="0">
      <root>
        <mxCell id="0" />
        <mxCell id="1" parent="0" />
        <mxCell id="K8oadKYb-1qSB6iZk7Jw-2" value="" style="shape=ext;double=1;rounded=0;whiteSpace=wrap;html=1;fillColor=#f5f5f5;fontColor=#333333;strokeColor=#666666;" vertex="1" parent="1">
          <mxGeometry x="60" y="90" width="410" height="370" as="geometry" />
        </mxCell>
        <mxCell id="K8oadKYb-1qSB6iZk7Jw-3" value="AliveCheck" style="text;strokeColor=none;fillColor=none;html=1;fontSize=24;fontStyle=1;verticalAlign=middle;align=center;" vertex="1" parent="1">
          <mxGeometry x="80" y="100" width="100" height="40" as="geometry" />
        </mxCell>
        <mxCell id="K8oadKYb-1qSB6iZk7Jw-4" value="StoreManager" style="shape=ext;double=1;rounded=1;whiteSpace=wrap;html=1;fontSize=17;" vertex="1" parent="1">
          <mxGeometry x="70" y="300" width="160" height="110" as="geometry" />
        </mxCell>
        <mxCell id="K8oadKYb-1qSB6iZk7Jw-5" value="&lt;font style=&quot;font-size: 18px;&quot;&gt;RPCManager&lt;/font&gt;" style="shape=ext;double=1;rounded=1;whiteSpace=wrap;html=1;" vertex="1" parent="1">
          <mxGeometry x="290" y="300" width="160" height="110" as="geometry" />
        </mxCell>
        <mxCell id="K8oadKYb-1qSB6iZk7Jw-7" value="accesstime" style="ellipse;shape=doubleEllipse;whiteSpace=wrap;html=1;fontSize=18;" vertex="1" parent="1">
          <mxGeometry x="180" y="210" width="160" height="25" as="geometry" />
        </mxCell>
        <mxCell id="K8oadKYb-1qSB6iZk7Jw-9" value="time tick触发&lt;br&gt;检查当前时间&amp;gt;accestime+alivetime" style="text;html=1;strokeColor=none;fillColor=none;align=center;verticalAlign=middle;whiteSpace=wrap;rounded=0;fontSize=18;" vertex="1" parent="1">
          <mxGeometry x="120" y="150" width="290" height="50" as="geometry" />
        </mxCell>
        <mxCell id="K8oadKYb-1qSB6iZk7Jw-11" value="" style="shape=flexArrow;endArrow=classic;html=1;rounded=0;fontSize=18;entryX=0;entryY=0.5;entryDx=0;entryDy=0;exitX=0.5;exitY=0;exitDx=0;exitDy=0;" edge="1" parent="1" source="K8oadKYb-1qSB6iZk7Jw-4" target="K8oadKYb-1qSB6iZk7Jw-7">
          <mxGeometry width="50" height="50" relative="1" as="geometry">
            <mxPoint x="390" y="450" as="sourcePoint" />
            <mxPoint x="440" y="400" as="targetPoint" />
          </mxGeometry>
        </mxCell>
        <mxCell id="K8oadKYb-1qSB6iZk7Jw-12" value="" style="shape=flexArrow;endArrow=classic;html=1;rounded=0;fontSize=18;entryX=1;entryY=0.5;entryDx=0;entryDy=0;exitX=0.5;exitY=0;exitDx=0;exitDy=0;" edge="1" parent="1" source="K8oadKYb-1qSB6iZk7Jw-5" target="K8oadKYb-1qSB6iZk7Jw-7">
          <mxGeometry width="50" height="50" relative="1" as="geometry">
            <mxPoint x="390" y="450" as="sourcePoint" />
            <mxPoint x="440" y="400" as="targetPoint" />
          </mxGeometry>
        </mxCell>
        <mxCell id="K8oadKYb-1qSB6iZk7Jw-14" value="" style="endArrow=classic;html=1;rounded=0;fontSize=18;exitX=0.75;exitY=1;exitDx=0;exitDy=0;entryX=0.5;entryY=1;entryDx=0;entryDy=0;" edge="1" parent="1" source="K8oadKYb-1qSB6iZk7Jw-2" target="K8oadKYb-1qSB6iZk7Jw-5">
          <mxGeometry width="50" height="50" relative="1" as="geometry">
            <mxPoint x="390" y="450" as="sourcePoint" />
            <mxPoint x="440" y="400" as="targetPoint" />
          </mxGeometry>
        </mxCell>
        <mxCell id="K8oadKYb-1qSB6iZk7Jw-15" value="rpc调用" style="text;html=1;strokeColor=none;fillColor=none;align=center;verticalAlign=middle;whiteSpace=wrap;rounded=0;fontSize=18;" vertex="1" parent="1">
          <mxGeometry x="370" y="420" width="70" height="30" as="geometry" />
        </mxCell>
        <mxCell id="K8oadKYb-1qSB6iZk7Jw-16" value="" style="endArrow=classic;html=1;rounded=0;fontSize=18;exitX=0.215;exitY=1.011;exitDx=0;exitDy=0;entryX=0.5;entryY=1;entryDx=0;entryDy=0;exitPerimeter=0;" edge="1" parent="1" source="K8oadKYb-1qSB6iZk7Jw-2" target="K8oadKYb-1qSB6iZk7Jw-4">
          <mxGeometry width="50" height="50" relative="1" as="geometry">
            <mxPoint x="390" y="450" as="sourcePoint" />
            <mxPoint x="440" y="400" as="targetPoint" />
          </mxGeometry>
        </mxCell>
        <mxCell id="K8oadKYb-1qSB6iZk7Jw-17" value="Load/Create task" style="text;html=1;strokeColor=none;fillColor=none;align=center;verticalAlign=middle;whiteSpace=wrap;rounded=0;fontSize=18;" vertex="1" parent="1">
          <mxGeometry x="160" y="420" width="140" height="30" as="geometry" />
        </mxCell>
        <mxCell id="K8oadKYb-1qSB6iZk7Jw-18" value="更新" style="text;html=1;strokeColor=none;fillColor=none;align=center;verticalAlign=middle;whiteSpace=wrap;rounded=0;fontSize=18;" vertex="1" parent="1">
          <mxGeometry x="220" y="250" width="60" height="30" as="geometry" />
        </mxCell>
      </root>
    </mxGraphModel>
  </diagram>
</mxfile>
